<?xml version="1.0" encoding="UTF-8"?>
<svg id="Ebene_1" data-name="Ebene 1" xmlns="http://www.w3.org/2000/svg" xmlns:xlink="http://www.w3.org/1999/xlink" viewBox="0 0 464 134.05">
  <defs>
    <style>
      .cls-1 {
        fill: url(#Degradado_sin_nombre_134-2);
      }

      .cls-1, .cls-2, .cls-3, .cls-4, .cls-5 {
        stroke-width: 0px;
      }

      .cls-2 {
        fill: url(#Unbenannter_Verlauf_3);
      }

      .cls-3 {
        fill: url(#Degradado_sin_nombre_134);
      }

      .cls-4 {
        fill: #b0aeb4;
      }

      .cls-5 {
        fill: #696b6d;
      }
    </style>
    <linearGradient id="Degradado_sin_nombre_134" data-name="Degradado sin nombre 134" x1="10.65" y1="77.13" x2="103.75" y2="77.13" gradientUnits="userSpaceOnUse">
      <stop offset="0" stop-color="#009c6e"/>
      <stop offset=".97" stop-color="#006f77"/>
      <stop offset="1" stop-color="#006e78"/>
    </linearGradient>
    <linearGradient id="Unbenannter_Verlauf_3" data-name="Unbenannter Verlauf 3" x1="59.43" y1="80.83" x2="103.81" y2="80.83" gradientUnits="userSpaceOnUse">
      <stop offset="0" stop-color="#a1316a"/>
      <stop offset=".18" stop-color="#b43c68" stop-opacity=".99"/>
      <stop offset=".5" stop-color="#d24c65" stop-opacity=".98"/>
      <stop offset=".78" stop-color="#e45664" stop-opacity=".97"/>
      <stop offset="1" stop-color="#eb5a64" stop-opacity=".97"/>
    </linearGradient>
    <linearGradient id="Degradado_sin_nombre_134-2" data-name="Degradado sin nombre 134" x1="33.92" y1="19.82" x2="59.43" y2="19.82" xlink:href="#Degradado_sin_nombre_134"/>
  </defs>
  <g>
    <path class="cls-5" d="M130.08,96.57c-1.99-2.19-2.98-5.27-2.98-9.25s.98-6.98,2.94-9.03c1.96-2.04,5.1-3.33,9.42-3.85l15.47-1.55v-4.15c0-3.34-.71-5.8-2.12-7.39-1.41-1.58-3.36-2.38-5.83-2.38s-4.9.08-7.08.26c-2.19.17-5.62.52-10.28,1.04l-.26-3.54c6.22-1.09,11.75-1.64,16.59-1.64,4.55,0,7.89,1.09,10.02,3.28,2.13,2.19,3.2,5.64,3.2,10.37v23.93c.06.92.6,1.7,1.64,2.33,1.04.64,2.48,1.07,4.32,1.3l-.17,3.54c-2.07,0-3.93-.32-5.57-.95-1.64-.63-2.92-1.53-3.84-2.68-5.41,2.42-11,3.63-16.76,3.63-3.8,0-6.7-1.09-8.68-3.28ZM152.59,93.72l2.33-.78v-16.5l-14.95,1.47c-3,.23-5.14,1.07-6.44,2.5-1.3,1.44-1.94,3.57-1.94,6.39,0,6.22,2.51,9.33,7.52,9.33,4.49,0,8.99-.81,13.48-2.42Z"/>
    <path class="cls-5" d="M172.72,55.88h4.23v3.46c4.67-2.82,9.45-4.23,14.34-4.23,5.3,0,9.11,1.73,11.45,5.18,2.33,3.46,3.5,9.02,3.5,16.68,0,5.47-.6,9.86-1.81,13.18-1.21,3.31-3.2,5.76-5.96,7.34s-6.48,2.38-11.15,2.38c-3.51,0-6.94-.35-10.28-1.04v19.87h-4.32v-62.81ZM198.72,91.69c2.13-2.97,3.2-7.76,3.2-14.39s-.91-11.27-2.72-14.13c-1.81-2.85-4.51-4.28-8.08-4.28-1.96,0-4.1.33-6.44.99-2.33.66-4.25,1.37-5.75,2.12l-1.9,1.12v31.88c5.07.75,8.7,1.12,10.89,1.12,5.07,0,8.67-1.48,10.8-4.45Z"/>
    <path class="cls-5" d="M219.37,59.68h-5.79v-3.8h5.79v-4.75c0-4.03.36-7.17,1.08-9.42s1.89-3.83,3.5-4.75,3.83-1.38,6.65-1.38l8.3.52-.08,3.46c-4.03-.06-6.45-.1-7.26-.13-.81-.03-1.33-.04-1.55-.04-2.54,0-4.23.95-5.1,2.85-.86,1.9-1.3,4.9-1.3,8.99v4.67h13.48v3.8h-13.48v39.4h-4.23v-39.4Z"/>
    <path class="cls-5" d="M246.55,94.76c-2.62-3.4-3.93-8.78-3.93-16.16,0-8.01,1.43-13.92,4.28-17.76,2.85-3.83,7.33-5.75,13.44-5.75,5.64,0,9.82,1.66,12.53,4.97,2.71,3.31,4.06,8.48,4.06,15.51l-.09,3.63h-29.89c-.06,4.15.34,7.44,1.21,9.89.86,2.45,2.34,4.23,4.45,5.36,2.1,1.12,5.02,1.68,8.77,1.68,1.55,0,3.38-.04,5.49-.13,2.1-.09,4.05-.22,5.83-.39l2.59-.26.17,3.54c-5.99.63-11.09.95-15.29.95-6.45,0-10.99-1.7-13.61-5.1ZM272.6,75.58c0-5.99-.98-10.3-2.94-12.92-1.96-2.62-5.07-3.93-9.33-3.93s-7.78,1.37-10.02,4.1c-2.25,2.74-3.4,6.99-3.46,12.74h25.75Z"/>
    <path class="cls-5" d="M288.32,36.35h4.32v62.73h-4.32v-62.73Z"/>
    <path class="cls-4" d="M306.29,36.35h4.32v22.12c4.89-2.25,9.76-3.37,14.6-3.37,3.8,0,6.71.65,8.73,1.94,2.02,1.29,3.43,3.45,4.23,6.48.81,3.02,1.21,7.36,1.21,13v22.55h-4.32v-22.38c0-4.95-.27-8.67-.82-11.15-.55-2.48-1.57-4.2-3.07-5.18-1.5-.98-3.77-1.47-6.83-1.47-3.8,0-7.78.81-11.92,2.42l-1.81.69v37.07h-4.32v-62.73Z"/>
    <path class="cls-4" d="M354.29,94.76c-2.62-3.4-3.93-8.78-3.93-16.16,0-8.01,1.43-13.92,4.28-17.76,2.85-3.83,7.33-5.75,13.44-5.75,5.64,0,9.82,1.66,12.53,4.97,2.71,3.31,4.06,8.48,4.06,15.51l-.09,3.63h-29.89c-.06,4.15.34,7.44,1.21,9.89.86,2.45,2.34,4.23,4.45,5.36,2.1,1.12,5.02,1.68,8.77,1.68,1.55,0,3.38-.04,5.49-.13,2.1-.09,4.05-.22,5.83-.39l2.59-.26.17,3.54c-5.99.63-11.09.95-15.29.95-6.45,0-10.99-1.7-13.61-5.1ZM380.34,75.58c0-5.99-.98-10.3-2.94-12.92-1.96-2.62-5.07-3.93-9.33-3.93s-7.78,1.37-10.02,4.1c-2.25,2.74-3.4,6.99-3.46,12.74h25.75Z"/>
    <path class="cls-4" d="M395.54,55.88h4.23v6.39c4.9-3.57,10.45-6.02,16.67-7.34v4.41c-2.36.46-5,1.27-7.9,2.42-2.91,1.15-5.03,2.19-6.35,3.11l-2.33,1.3v32.92h-4.32v-43.2Z"/>
    <path class="cls-4" d="M421.55,95.28l26.87-35.6h-26.87v-3.8h32.05v3.8l-26.78,35.6h26.78v3.8h-32.05v-3.8Z"/>
  </g>
  <path class="cls-3" d="M103.74,63.08c-3.86-4.56-8.67-6.2-14.32-4.68-5.79,1.55-8.46,5.93-9.58,11.56-1.2-.71-2.33-1.41-3.48-2.06-4.69-2.66-10.03-2.12-14.13,1.4-2.33,2-3.94,4.43-4.56,7.48-.84,4.1.24,7.71,2.69,11.01,2.67,3.6,6.28,5.91,10.36,7.59,6.56,2.71,13.23,5.16,19.54,8.43.23.12.46.24.8.42-.81,1.03-1.57,2.04-2.37,3-3.01,3.63-6.28,6.95-10.47,9.24-5.34,2.91-10.93,3.32-16.69,1.53-2.98-.93-5.91-.87-8.87.01-4.66,1.39-9.31,1.54-13.92-.24-2.52-.97-4.75-2.42-6.75-4.23-8.85-8.03-15.37-17.56-18.79-29.09-2.06-6.95-2.81-14.05-2.49-21.29.17-4.01.65-7.94,2.15-11.67,3.72-9.31,10.61-14.63,20.52-16.04,4.07-.58,8.08-.14,12.08.65,5.07,1,10.19,1.47,15.35.96,3.73-.37,7.44-1.04,11.16-1.52,7.69-.97,14.86.27,21.08,5.2,4.69,3.72,7.59,8.66,9.2,14.35.69,2.44,1.01,4.98,1.5,7.48.03.13,0,.27,0,.51Z"/>
  <path class="cls-2" d="M91.68,101.81c-1.7-.82-3.3-1.69-4.96-2.4-4.65-1.98-9.33-3.92-14.01-5.84-2.9-1.19-5.75-2.46-8.13-4.57-2.32-2.06-4.25-4.44-4.91-7.56-1.04-4.94,1.25-9.64,5.73-12.02,2.97-1.58,6.03-1.72,8.98-.12,2.16,1.17,4.15,2.66,6.21,4.01.14.09.27.2.45.34.41-1.82.75-3.61,1.23-5.35,1.14-4.13,3.58-7.08,7.88-8.11,6.3-1.51,12.59,2.26,13.5,9.26.52,4.04-.26,7.82-2.02,11.42-1.83,3.74-3.8,7.42-5.6,11.18-1.44,3.01-2.72,6.1-4.07,9.15-.08.17-.16.35-.28.61Z"/>
  <path class="cls-1" d="M33.92,10.29c2-.73,3.98-1.17,6.01-1.3,5.38-.34,10.19,1.07,14.13,4.89,3.04,2.95,4.7,6.62,5.22,10.78.19,1.56.14,3.15.14,4.72,0,.23-.25.62-.44.66-3.77.83-7.55,1.04-11.25-.31-4.3-1.57-7.05-4.76-8.89-8.81-.84-1.85-1.46-3.8-2.31-5.65-.77-1.67-1.7-3.26-2.61-4.98Z"/>
</svg>