<svg
                    width="32"
                    height="23"
                    viewBox="0 0 32 23"
                    fill="none"
                    xmlns="http://www.w3.org/2000/svg"
                  >
                    <g clip-path="url(#clip0_166_1145)">
                      <path
                        d="M31.9996 20.5071C31.9151 20.7768 31.8305 21.0464 31.721 21.3936C28.5048 18.0399 25.33 14.7293 22.2305 11.4972C25.3183 8.28032 28.5001 4.9658 31.7217 1.60889C31.8305 1.9537 31.9151 2.22331 31.9996 2.49292V20.5063V20.5071Z"
                        fill="#4A4A4A"
                        fill-opacity="0.3"
                      />
                      <path
                        d="M1.64356 0.193651C2.09989 0.129649 2.55622 0.0112445 3.01254 0.0104445C9.15691 -0.00155592 15.3013 0.00244422 21.4464 0.00244422C23.977 0.00244422 26.5083 -0.00635609 29.0388 0.0112445C29.4764 0.0144446 29.9131 0.129649 30.3507 0.192851C30.3553 0.228852 30.3593 0.264853 30.364 0.300855C30.2896 0.381657 30.2176 0.46566 30.1409 0.544063C26.1396 4.6138 22.1383 8.68355 18.1363 12.7525C17.0843 13.8221 15.7999 14.0389 14.5835 13.3333C14.3252 13.1837 14.0912 12.9749 13.8791 12.7589C9.86527 8.68595 5.85773 4.6082 1.84864 0.531263C1.77662 0.45766 1.70931 0.379257 1.63965 0.303255C1.64121 0.267253 1.642 0.230452 1.64356 0.194451V0.193651Z"
                        fill="#4A4A4A"
                        fill-opacity="0.3"
                      />
                      <path
                        d="M30.2546 22.8216C29.9024 22.8712 29.4469 22.9896 28.9905 22.9904C22.9511 23.0024 16.9116 22.9984 10.8721 22.9984C8.23746 22.9984 5.60282 23.0072 2.96896 22.9896C2.53142 22.9864 2.09388 22.8728 1.71191 22.8176C4.91324 19.4807 8.09109 16.1686 11.2948 12.8301C11.7628 13.3109 12.1847 13.7485 12.6105 14.1821C13.614 15.2046 14.8202 15.7166 16.2408 15.6478C17.4814 15.5878 18.5279 15.0702 19.3999 14.1741C19.8178 13.7445 20.235 13.3149 20.6874 12.8493C23.8841 16.1822 27.065 19.4983 30.2539 22.8216H30.2546Z"
                        fill="#4A4A4A"
                        fill-opacity="0.3"
                      />
                      <path
                        d="M0.336375 1.64807C3.51266 4.95859 6.68894 8.2691 9.78695 11.498C6.68659 14.7301 3.51031 18.0406 0.309762 21.3768C0.0616393 20.8871 -0.00019568 20.4335 0.000587041 19.9631C0.00293521 17.0886 0.00215248 14.2141 0.00215248 11.3404C0.00215248 8.56191 -0.00645745 5.78342 0.0107624 3.00492C0.0138933 2.5633 0.13365 2.12169 0.198616 1.68007L0.336375 1.64887V1.64807Z"
                        fill="#4A4A4A"
                        fill-opacity="0.3"
                      />
                    </g>
                    <defs>
                      <clipPath id="clip0_166_1145">
                        <rect width="32" height="23" fill="white" />
                      </clipPath>
                    </defs>
                  </svg>