<svg
                  viewBox="0 0 28 28"
                  fill="none"
                  xmlns="http://www.w3.org/2000/svg"
                >
                  <path
                    d="M27.5999 12.2534L25.6066 3.88002C25.5733 3.74002 25.5133 3.61335 25.4533 3.49335L27.6666 1.28002C27.9266 1.02002 27.9266 0.600019 27.6666 0.34002C27.4066 0.0800195 26.9866 0.0800195 26.7266 0.34002L24.5133 2.55335C24.3866 2.49335 24.2599 2.43335 24.1266 2.40002L15.7533 0.406686C15.0799 0.246686 14.3599 0.453353 13.8733 0.940019L0.726601 14.08C-0.0533984 14.86 -0.0533984 16.1267 0.726601 16.9067L11.0999 27.28C11.8799 28.06 13.1466 28.06 13.9266 27.28L27.0733 14.1334C27.5599 13.6467 27.7666 12.9267 27.6066 12.2534H27.5999ZM20.5333 9.46669C19.9799 9.46669 19.4799 9.24002 19.1199 8.88002C18.7599 8.52002 18.5333 8.02002 18.5333 7.46669C18.5333 6.36669 19.4333 5.46669 20.5333 5.46669C20.8399 5.46669 21.1266 5.54002 21.3866 5.66669L20.0333 7.02002C19.7733 7.28002 19.7733 7.70002 20.0333 7.96002C20.2933 8.22002 20.7133 8.22002 20.9733 7.96002L22.3266 6.60669C22.4533 6.86669 22.5266 7.15335 22.5266 7.46002C22.5266 8.56002 21.6266 9.46002 20.5266 9.46002L20.5333 9.46669Z"
                    fill="#009A71"
                  />
                </svg>