<svg width="33" height="33" viewBox="0 0 33 33" fill="none" xmlns="http://www.w3.org/2000/svg">
<circle cx="16.5" cy="16.5" r="16.5" fill="#009A71"/>
<path d="M27.3545 8.81954L27.3699 8.83574L27.5508 8.64617C28.0548 8.11794 28.8633 8.11794 29.3673 8.64617C29.8776 9.18102 29.8776 10.0491 29.3673 10.5839L13.3653 27.3553C13.1135 27.6043 12.7896 27.75 12.4469 27.75C12.0974 27.75 11.7768 27.6156 11.5309 27.3579L2.63274 18.0318C2.12242 17.497 2.12242 16.6289 2.63274 16.0941C3.13673 15.5658 3.9452 15.5658 4.44919 16.0941L12.2506 24.2705L12.4314 24.4601L12.6123 24.2705L20.0738 16.4503L27.3545 8.81954Z" fill="white" stroke="#009A71" stroke-width="0.5"/>
</svg>
