<svg  viewBox="0 0 32 32" fill="none" xmlns="http://www.w3.org/2000/svg">
     <path d="M27.1738 26.7867L25.4604 10.7867C25.3538 9.76667 24.4938 9 23.4738 9H21.3404V6.33333C21.3404 3.39333 18.9471 1 16.0071 1C13.0671 1 10.6738 3.39333 10.6738 6.33333V9H8.54043C7.51376 9 6.66043 9.76667 6.55376 10.7867L4.84043 26.7867C4.78043 27.3467 4.96043 27.9133 5.34043 28.3333C5.72043 28.7533 6.26043 29 6.8271 29H25.1938C25.7604 29 26.3004 28.76 26.6804 28.3333C27.0604 27.9133 27.2404 27.3467 27.1804 26.7867H27.1738ZM12.0004 6.33333C12.0004 4.12667 13.7938 2.33333 16.0004 2.33333C18.2071 2.33333 20.0004 4.12667 20.0004 6.33333V9H12.0004V6.33333ZM21.3338 14.3333C21.3338 17.2733 18.9404 19.6667 16.0004 19.6667C13.0604 19.6667 10.6671 17.2733 10.6671 14.3333V12.3333C10.6671 11.9667 10.9671 11.6667 11.3338 11.6667C11.7004 11.6667 12.0004 11.9667 12.0004 12.3333V14.3333C12.0004 16.54 13.7938 18.3333 16.0004 18.3333C18.2071 18.3333 20.0004 16.54 20.0004 14.3333V12.3333C20.0004 11.9667 20.3004 11.6667 20.6671 11.6667C21.0338 11.6667 21.3338 11.9667 21.3338 12.3333V14.3333Z"
                    fill="#009A71" />
</svg>