 <svg 
                  viewBox="0 0 32 32"
                  fill="none"
                  xmlns="http://www.w3.org/2000/svg"
                >
                  <path
                    d="M15.3332 2.66675H5.59321C4.76654 2.66675 4.01321 3.18675 3.71988 3.96675L2.20654 8.00008H15.3332V2.66675Z"
                    fill="#009A71"
                  />
                  <path
                    d="M28.2798 3.96675C27.9865 3.19341 27.2398 2.66675 26.4065 2.66675H16.6665V8.00008H29.7932L28.2798 3.96675Z"
                    fill="#009A71"
                  />
                  <path
                    d="M30 9.33325V18.0533C28.4667 15.6199 25.7533 13.9999 22.6667 13.9999C17.8867 13.9999 14 17.8866 14 22.6666C14 25.3466 15.22 27.7466 17.1333 29.3333H4C2.9 29.3333 2 28.4333 2 27.3333V9.33325H15.3333V11.3333C15.3333 11.6999 15.6333 11.9999 16 11.9999C16.3667 11.9999 16.6667 11.6999 16.6667 11.3333V9.33325H30Z"
                    fill="#009A71"
                  />
                  <path
                    d="M22.6668 15.3333C18.6202 15.3333 15.3335 18.6199 15.3335 22.6666C15.3335 26.7133 18.6202 29.9999 22.6668 29.9999C26.7135 29.9999 30.0002 26.7133 30.0002 22.6666C30.0002 18.6199 26.7135 15.3333 22.6668 15.3333ZM23.3335 25.3333H20.0002C19.6335 25.3333 19.3335 25.0333 19.3335 24.6666C19.3335 24.2999 19.6335 23.9999 20.0002 23.9999H23.3335C24.0668 23.9999 24.6668 23.3999 24.6668 22.6666C24.6668 21.9333 24.0668 21.3333 23.3335 21.3333H21.6068L22.1335 21.8599C22.3935 22.1199 22.3935 22.5399 22.1335 22.7999C22.0002 22.9333 21.8335 22.9933 21.6602 22.9933C21.4868 22.9933 21.3202 22.9266 21.1868 22.7999L19.5202 21.1333C19.2602 20.8733 19.2602 20.4533 19.5202 20.1933L21.1868 18.5266C21.4468 18.2666 21.8668 18.2666 22.1268 18.5266C22.3868 18.7866 22.3868 19.2066 22.1268 19.4666L21.6002 19.9933H23.3268C24.8002 19.9933 25.9935 21.1866 25.9935 22.6599C25.9935 24.1333 24.8002 25.3266 23.3268 25.3266L23.3335 25.3333Z"
                    fill="#009A71"
                  />
                </svg>