 <svg
                    width="26"
                    height="26"
                    viewBox="0 0 26 26"
                    fill="none"
                    xmlns="http://www.w3.org/2000/svg"
                  >
                    <g clip-path="url(#clip0_166_1143)">
                      <path
                        d="M0 6.53178C0.0737445 6.34996 0.148935 6.09932 0.272566 5.87477C1.00278 4.54482 1.92748 3.35249 2.9534 2.24492C3.55853 1.59226 4.22296 0.990306 4.89895 0.410082C5.82292 -0.383834 6.7563 0.106568 7.22985 0.757782C8.44158 2.4224 9.57233 4.14206 10.4363 6.02109C10.5635 6.29853 10.6568 6.59262 10.7486 6.88455C10.9084 7.39161 10.8122 7.8697 10.4544 8.24782C10.0394 8.68534 9.58462 9.08665 9.13058 9.48433C8.52761 10.0124 8.51243 10.0081 8.82404 10.7375C10.176 13.9059 12.4549 16.1145 15.6599 17.3699C15.9346 17.4778 16.1009 17.4604 16.2954 17.2149C16.6814 16.7274 17.1008 16.2645 17.5223 15.8067C18.0566 15.2257 18.7174 15.0461 19.4367 15.3778C20.3593 15.8038 21.2818 16.242 22.1537 16.7607C23.1912 17.3771 24.1788 18.0783 25.1794 18.7549C25.5908 19.033 25.8373 19.4358 25.961 19.9204C26.0325 20.2007 26.0094 20.4637 25.8648 20.7042C25.6884 20.9968 25.5142 21.2982 25.2915 21.5546C23.8636 23.196 22.1783 24.5274 20.3484 25.6929C19.7079 26.1008 19.0709 26.0291 18.4 25.8965C16.0575 25.4322 13.9348 24.4391 11.9488 23.1475C7.83861 20.4731 4.52806 17.0265 2.10895 12.7447C1.20377 11.1424 0.514766 9.44884 0.168456 7.62993C0.10411 7.29309 0.0643457 6.95264 0.000722985 6.53323L0 6.53178Z"
                        fill="#4A4A4A"
                        fill-opacity="0.3"
                      />
                    </g>
                    <defs>
                      <clipPath id="clip0_166_1143">
                        <rect width="26" height="26" fill="white" />
                      </clipPath>
                    </defs>
                  </svg>