<svg width="12" height="21" viewBox="0 0 12 21" fill="none" xmlns="http://www.w3.org/2000/svg">
<path d="M3.91193 14.4418V14.2017C3.91809 13.0876 4.02273 12.2012 4.22585 11.5426C4.43513 10.884 4.73059 10.3546 5.11222 9.95454C5.49384 9.54829 5.95857 9.1759 6.50639 8.83736C6.88187 8.60346 7.21733 8.34801 7.51278 8.07102C7.81439 7.78788 8.05137 7.47396 8.22372 7.12926C8.39607 6.77841 8.48224 6.38755 8.48224 5.95668C8.48224 5.47041 8.36837 5.04877 8.14062 4.69176C7.91288 4.33475 7.60511 4.05777 7.21733 3.8608C6.8357 3.66383 6.40791 3.56534 5.93395 3.56534C5.49692 3.56534 5.08144 3.66075 4.6875 3.85156C4.29972 4.03622 3.97656 4.31936 3.71804 4.70099C3.46567 5.07647 3.3241 5.5535 3.29332 6.1321H0.00639205C0.0371686 4.96259 0.320313 3.9839 0.855824 3.19602C1.39749 2.40814 2.11151 1.81723 2.99787 1.42329C3.89039 1.02936 4.87524 0.832386 5.95241 0.832386C7.12808 0.832386 8.16217 1.03859 9.05469 1.45099C9.95336 1.8634 10.652 2.45123 11.1506 3.21449C11.6553 3.97159 11.9077 4.87026 11.9077 5.91051C11.9077 6.61221 11.7938 7.24006 11.5661 7.79403C11.3445 8.34801 11.0275 8.84044 10.6151 9.27131C10.2027 9.70218 9.71331 10.0869 9.14702 10.4254C8.64844 10.7332 8.23911 11.0533 7.91903 11.3857C7.60511 11.718 7.37121 12.1089 7.21733 12.5582C7.0696 13.0014 6.99266 13.5492 6.98651 14.2017V14.4418H3.91193ZM5.51847 20.2031C4.96449 20.2031 4.48745 20.0062 4.08736 19.6122C3.68726 19.2183 3.48722 18.7382 3.48722 18.1719C3.48722 17.6179 3.68726 17.1439 4.08736 16.75C4.48745 16.3561 4.96449 16.1591 5.51847 16.1591C6.06629 16.1591 6.54025 16.3561 6.94034 16.75C7.34659 17.1439 7.54972 17.6179 7.54972 18.1719C7.54972 18.5473 7.45431 18.889 7.26349 19.1967C7.07884 19.5045 6.83262 19.7507 6.52486 19.9354C6.22325 20.1139 5.88778 20.2031 5.51847 20.2031Z" fill="white"/>
</svg>
