 <svg
                    width="31"
                    height="31"
                    viewBox="0 0 31 31"
                    fill="none"
                    xmlns="http://www.w3.org/2000/svg"
                  >
                    <path
                      d="M17.4377 1.9375H13.5627C7.5112 1.9375 2.5835 6.86521 2.5835 12.9167V19.375C2.5835 19.7302 2.87412 20.0208 3.22933 20.0208C3.58454 20.0208 3.87516 19.7302 3.87516 19.375V21.9583C3.87516 23.024 4.74704 23.8958 5.81266 23.8958V24.5417C5.81266 26.3242 7.25933 27.7708 9.04183 27.7708H13.6789C13.9437 28.52 14.6541 29.0625 15.5002 29.0625C16.5658 29.0625 17.4377 28.1906 17.4377 27.125C17.4377 26.0594 16.5658 25.1875 15.5002 25.1875C14.6606 25.1875 13.9502 25.73 13.6789 26.4792H9.04183C7.9762 26.4792 7.10433 25.6073 7.10433 24.5417V23.8958H8.396C8.7512 23.8958 9.04183 23.6052 9.04183 23.25V14.2083C9.04183 13.8531 8.7512 13.5625 8.396 13.5625H5.81266C4.74704 13.5625 3.87516 14.4344 3.87516 15.5V12.9167C3.87516 7.57562 8.22162 3.22917 13.5627 3.22917H17.4377C22.7787 3.22917 27.1252 7.57562 27.1252 12.9167V15.5C27.1252 14.4344 26.2533 13.5625 25.1877 13.5625H22.6043C22.2491 13.5625 21.9585 13.8531 21.9585 14.2083V23.25C21.9585 23.6052 22.2491 23.8958 22.6043 23.8958H25.1877C26.2533 23.8958 27.1252 23.024 27.1252 21.9583V19.375C27.1252 19.7302 27.4158 20.0208 27.771 20.0208C28.1262 20.0208 28.4168 19.7302 28.4168 19.375V12.9167C28.4168 6.86521 23.4891 1.9375 17.4377 1.9375Z"
                      fill="white"
                    />
                  </svg>