<svg
                    width="30"
                    height="30"
                    viewBox="0 0 30 30"
                    fill="none"
                    xmlns="http://www.w3.org/2000/svg"
                  >
                    <path
                      d="M16.8187 3.68125L15.4749 2.09375C15.2374 1.8125 14.7562 1.8125 14.5187 2.09375L13.1749 3.68125C7.3874 10.4937 4.99365 13.3187 4.99365 18.1812C4.99365 23.85 9.29365 28.125 14.9937 28.125C20.6937 28.125 24.9937 23.85 24.9937 18.1812C24.9937 13.3187 22.5999 10.5 16.8124 3.68125H16.8187ZM18.6437 24.7687C18.5499 24.8187 18.4562 24.8375 18.3562 24.8375C18.1312 24.8375 17.9124 24.7125 17.7999 24.5C17.6437 24.1937 17.7624 23.8187 18.0687 23.6562C19.6312 22.85 20.6999 21.4312 21.0874 19.6687C21.1624 19.3312 21.4937 19.1187 21.8312 19.1937C22.1687 19.2687 22.3812 19.6 22.3062 19.9375C21.8374 22.075 20.5374 23.7875 18.6374 24.7687H18.6437Z"
                      fill="white"
                    />
                  </svg>